<svg width="1024" height="199" viewBox="0 0 1024 199" fill="none" xmlns="http://www.w3.org/2000/svg">
<g clip-path="url(#clip0_349_5)">
<path d="M254.504 98.1893L251.307 93.7178C252.674 95.7078 252.234 98.3297 250.381 99.8748C250.08 100.039 249.778 100.343 249.454 100.343L150.264 140.658C149.199 140.963 148.597 142.039 148.597 143.116V196.378C148.597 197.759 149.824 199 151.191 199H180.494C181.861 199 183.088 197.759 183.088 196.378V166.669C183.088 165.592 183.691 164.679 184.756 164.21L223.834 148.361C249.014 138.2 261.685 116.029 254.504 98.1893Z" fill="#081B1F"/>
<path d="M253.137 51.2481C252.974 51.084 252.974 50.9436 252.974 50.9436C239.4 32.3313 227.031 29.1004 209.171 35.0939L220.614 50.9436L231.756 66.4888L231.918 66.7934L243.06 82.3386L254.503 98.1884C265.807 82.8068 266.41 70.0243 253.137 51.2481Z" fill="#081B1F"/>
<path d="M206.275 38.793C208.267 37.4117 210.862 37.8799 212.391 39.7062L209.194 35.2344C204.167 30.9267 197.89 28.7728 191.195 28.6089C178.386 28.3046 163.723 35.3749 152.441 49.2345L60.5254 159.762C60.3634 160.066 60.0622 160.23 59.761 160.37C57.7689 161.752 55.1744 161.284 53.6455 159.457L56.8424 163.929C61.869 168.237 68.1466 170.391 74.8408 170.554C87.6509 170.859 102.314 163.788 113.595 149.929L205.511 39.4017C205.812 39.0975 205.974 38.9334 206.275 38.793Z" fill="#081B1F"/>
<path d="M14.7531 105.423C13.3864 103.433 13.8265 100.811 15.6797 99.2657C15.9808 99.102 16.2819 98.7975 16.6063 98.7975L115.773 58.4827C116.838 58.1782 117.441 57.1014 117.441 56.0245V2.62212C117.441 1.24083 116.213 0 114.846 0H85.5432C84.1764 0 82.9487 1.24083 82.9487 2.62212V32.3316C82.9487 33.4086 82.3467 34.3216 81.281 34.7899L42.2029 50.6395C17.0464 60.6364 4.21334 82.9477 11.3943 100.811L14.7531 105.423Z" fill="#081B1F"/>
<path d="M34.2804 132.51L34.1183 132.206L22.9762 116.661L11.5331 100.811C0.228858 116.052 -0.512397 128.975 12.8997 147.752C12.8997 147.752 12.8997 147.915 13.0619 147.915C13.0619 147.915 13.0619 148.079 13.224 148.079C26.7983 166.691 39.168 169.922 57.0277 163.929L45.5847 148.079L34.2804 132.534V132.51Z" fill="#081B1F"/>
<path d="M330.506 58.8108C338.591 58.8108 343.478 53.4258 343.478 44.951C343.478 37.2484 338.892 32.4959 330.506 32.4959H321.495V34.3454H324.09V58.67H330.506V58.8341V58.8108ZM324.09 79.577C324.09 83.5803 325.92 85.5703 329.881 85.734L332.174 85.8981V88.8245H301.968V85.8981L304.261 85.734C308.083 85.4299 310.052 83.4166 310.052 79.577V37.8573C310.052 33.8537 308.222 31.8637 304.261 31.6999L301.968 31.536V28.6095H336.459C349.733 28.6095 357.979 35.0711 357.979 44.7637C357.979 55.0647 349.431 62.463 336.459 62.463H321.356V64.3126H323.951V79.5534H324.113L324.09 79.577Z" fill="#081B1F"/>
<path d="M371.414 62.3219H388.208C388.208 55.2518 385.013 49.7031 379.96 49.7031C374.611 49.7031 372.016 55.2518 371.414 62.3219ZM367.893 65.7166V67.5662H371.252C371.854 76.6499 376.603 82.8073 385.29 82.8073C389.551 82.8073 393.838 81.1218 396.43 76.1817L397.034 76.4862C394.139 84.7973 387.121 89.8778 379.637 89.8778C367.268 89.8778 358.419 80.6536 358.419 68.0344C358.419 55.4155 367.267 45.4186 380.099 45.4186C391.243 45.4186 398.726 54.0341 398.261 65.7402H367.893V65.7166Z" fill="#081B1F"/>
<path d="M404.214 31.3951L401.622 30.1543L420.707 25.6826V80.7704C420.707 84.1654 421.937 86.0146 424.668 86.1554L426.963 86.3191V88.9414H402.687V86.3191L404.979 86.1554C407.575 85.9913 408.94 84.1654 408.94 80.7704V37.1075C408.64 34.345 407.875 33.268 404.214 31.4185V31.3951Z" fill="#081B1F"/>
<path d="M458.096 61.5732C458.096 55.2518 455.8 49.7267 450.613 49.7267C446.79 49.7267 443.756 53.4259 443.756 60.9646C443.756 68.5029 446.952 72.8107 451.239 72.8107C454.757 72.647 458.096 69.4161 458.096 61.5732ZM465.414 99.1256C465.414 96.3629 463.748 95.1224 460.526 94.9816L440.699 93.4365C439.03 94.5133 437.503 96.1992 437.503 98.6807C437.503 102.216 441.325 106.079 451.839 106.079C463.887 106.079 465.414 101.467 465.414 99.1489V99.1256ZM428.028 99.5939C428.028 95.5906 432.289 94.0451 437.038 92.0551L441.16 90.3696L439.334 89.5969L435.369 91.2828C433.703 89.7373 432.938 87.5836 432.938 85.4296C432.938 79.4363 440.421 75.5734 445.448 73.8876L443.617 72.8107L439.956 74.0516C435.069 71.4293 431.873 66.9811 431.873 61.4328C431.873 52.5127 440.583 45.583 450.961 45.583C453.857 45.583 456.614 46.0512 459.045 46.9644C462.402 43.1248 466.224 40.1984 470.95 40.1984C475.676 40.1984 478.272 43.4289 478.272 46.3553C478.272 49.2818 476.141 51.2718 473.546 51.2718C470.789 51.2718 467.754 48.6499 469.12 45.2785H470.35V43.7334C467.593 43.4289 464.997 44.6466 461.502 47.8771C466.689 50.4994 469.885 55.1113 469.885 60.6601C469.885 69.5798 461.175 76.5099 450.796 76.5099C448.97 76.5099 447.139 76.3458 445.448 76.0416C442.691 77.1185 441.487 78.6636 441.487 79.8812C441.487 81.4263 442.252 82.6436 446.374 83.1118L462.867 84.3527C470.185 84.9613 474.472 88.1923 474.472 94.9816C474.472 100.367 470.511 109.45 449.896 109.45C434.491 109.754 428.073 105.143 428.073 99.5939H428.028Z" fill="#081B1F"/>
<path d="M493.489 75.4089C493.489 80.0212 495.481 83.2518 500.207 83.2518C503.568 83.2518 506.763 81.2618 508.755 77.8672V57.4055C508.755 54.479 507.99 53.4018 504.168 51.5522L501.576 50.3117L520.661 45.2312V79.389C520.661 82.1517 521.264 83.2285 524.787 84.9377L527.844 86.4827L508.755 89.7137V84.4695L511.812 80.4658V77.7035L510.147 80.0212C506.786 84.4927 501.898 89.7137 494.277 89.7137C486.655 89.7137 481.606 84.7972 481.606 76.9307V57.3818C481.606 54.4554 480.841 53.3785 477.019 51.5289L474.427 50.288L493.511 45.2079V75.362L493.489 75.4089Z" fill="#081B1F"/>
<path d="M531.501 31.3951L528.909 30.1543L547.998 25.6826V80.7704C547.998 84.1654 549.224 86.0146 551.959 86.1554L554.25 86.3191V88.9414H529.974V86.3191L532.266 86.1554C534.862 85.9913 536.227 84.1654 536.227 80.7704V37.1075C536.066 34.345 535.301 33.268 531.501 31.4185V31.3951Z" fill="#081B1F"/>
<path d="M564.164 27.251H576.069V38.6292H564.164V27.251ZM576.069 45.2548V80.6531C576.069 84.0478 577.438 85.7337 580.334 86.0378L582.164 86.2019V88.8238H557.885V86.2019L559.88 86.0378C562.472 85.7337 564.002 84.0478 564.002 80.6531V57.4054C564.002 54.6427 563.399 53.5659 560.042 51.8567L556.846 50.3117L576.069 45.2312V45.2548Z" fill="#081B1F"/>
<path d="M588.256 51.8567L585.061 50.3117L604.145 45.2312V51.084L601.088 54.9236V57.6863L602.315 56.1412C606.902 50.288 611.928 45.2079 618.646 45.2079C626.429 45.2079 631.317 49.9839 631.317 57.9908V80.4658C631.317 83.6967 632.986 85.5463 635.582 85.8508L637.573 86.0145V88.6368H613.92V86.0145L615.751 85.8508C618.185 85.5463 619.411 83.8608 619.411 80.4658V59.5359C619.411 54.7599 616.816 51.9972 612.555 51.9972C609.359 51.9972 606.441 53.9872 604.168 57.2414V80.3254C604.168 83.5563 605.398 85.4059 607.829 85.71L609.659 85.8741V88.496H586.01V85.8741L588.001 85.71C590.597 85.4059 592.124 83.72 592.124 80.3254V57.0777C592.285 54.6195 591.662 53.683 588.301 51.8335L588.256 51.8567Z" fill="#081B1F"/>
<path d="M643.2 51.8567L640.004 50.3117L659.092 45.2312V51.084L656.035 54.9236V57.6863L657.262 56.1412C661.849 50.288 666.875 45.2079 673.593 45.2079C681.376 45.2079 686.264 49.9839 686.264 57.9908V80.4658C686.264 83.6967 687.933 85.5463 690.525 85.8508L692.517 86.0145V88.6368H668.867V86.0145L670.698 85.8508C673.128 85.5463 674.359 83.8608 674.359 80.4658V59.5359C674.359 54.7599 671.763 51.9972 667.502 51.9972C664.302 51.9972 661.384 53.9872 659.115 57.2414V80.3254C659.115 83.5563 660.341 85.4059 662.776 85.71L664.606 85.8741V88.496H640.953V85.8741L642.945 85.71C645.54 85.4059 647.071 83.72 647.071 80.3254V57.0777C647.232 54.6195 646.605 53.683 643.248 51.8335L643.2 51.8567Z" fill="#081B1F"/>
<path d="M713.109 83.1118C716.308 83.1118 719.365 81.2622 721.496 78.1954V67.262L714.013 69.8843C709.286 71.5698 707.295 73.7239 707.295 77.2822C707.295 80.8409 709.286 83.1351 713.086 83.1351L713.109 83.1118ZM724.714 80.3491V77.2822L722.122 80.6769C717.996 86.2256 713.412 89.7606 707.017 89.7606C699.999 89.7606 695.877 86.0619 695.877 79.6C695.877 73.1385 701.53 70.5162 708.848 68.2221L721.518 64.078V58.5297C721.518 53.7537 719.088 50.2182 713.735 50.2182C708.386 50.2182 706.417 52.6764 706.417 55.2987H708.409C709.174 60.6834 706.74 63.4461 703.217 63.4461C699.699 63.4461 697.73 60.8238 697.73 57.5929C697.73 50.8269 705.513 45.5826 716.053 45.5826C727.959 45.5826 733.45 51.1314 733.45 60.6601V80.2086C733.45 82.5264 734.815 83.7441 736.646 83.7441C737.572 83.7441 738.776 83.58 740.003 82.5032L740.307 82.6669C738.315 87.4429 733.75 89.7374 729.766 89.7374C725.179 89.7374 722.445 87.8878 721.818 84.1886L724.714 80.3491Z" fill="#081B1F"/>
<path d="M331.271 137.919C337.826 137.919 342.714 133.775 342.714 126.213C342.714 119.143 338.753 113.899 331.109 113.899H320.731V115.889H324.09V137.896H331.271V137.919ZM324.09 161.003C324.09 165.006 325.92 166.996 329.881 167.16L332.174 167.324V170.25H301.968V167.324L304.261 167.16C308.083 166.856 310.052 164.843 310.052 161.003V119.283C310.052 115.28 308.222 113.29 304.261 113.126L301.968 112.962V109.895H335.857C349.431 109.895 356.913 116.825 356.913 125.745C356.913 132.815 350.798 138.059 344.243 140.213C348.829 141.29 352.026 144.217 353.694 148.056L360.412 163.766C361.477 166.224 363.307 166.833 365.137 167.16L366.203 167.324V170.087H347.579L339.193 147.471C337.525 143.327 335.672 141.618 331.873 141.618H320.731V143.608H324.09V161.003Z" fill="#081B1F"/>
<path d="M374.611 108.514H386.517V119.892H374.611V108.514ZM386.517 126.681V162.08C386.517 165.474 387.882 167.16 390.778 167.464L392.609 167.629V170.25H368.333V167.629L370.325 167.464C372.92 167.16 374.449 165.474 374.449 162.08V138.832C374.449 136.069 373.846 134.993 370.488 133.283L367.291 131.738L386.517 126.658V126.681Z" fill="#081B1F"/>
<path d="M402.687 108.514H414.592V119.892H402.687V108.514ZM414.731 126.681V162.08C414.731 165.474 416.096 167.16 418.992 167.464L420.823 167.629V170.25H396.547V167.629L398.538 167.464C401.134 167.16 402.664 165.474 402.664 162.08V138.832C402.664 136.069 402.06 134.993 398.7 133.283L395.504 131.738L414.731 126.658V126.681Z" fill="#081B1F"/>
<path d="M452.143 142.835C452.143 136.514 449.847 130.989 444.659 130.989C440.837 130.989 437.803 134.689 437.803 142.227C437.803 149.766 440.999 154.073 445.286 154.073C448.804 154.073 452.143 150.679 452.143 142.835ZM459.461 180.388C459.461 177.626 457.791 176.385 454.573 176.244L434.746 174.699C433.077 175.776 431.546 177.461 431.546 179.943C431.546 183.478 435.368 187.341 445.886 187.341C457.791 187.505 459.461 182.87 459.461 180.412V180.388ZM422.075 180.997C422.075 176.993 426.336 175.448 431.085 173.458L435.207 171.773L433.377 171L429.416 172.686C427.75 171.14 426.985 168.987 426.985 166.833C426.985 160.839 434.468 156.977 439.494 155.291L437.664 154.214L434.003 155.455C429.116 152.832 425.92 148.384 425.92 142.835C425.92 133.916 434.63 126.986 445.008 126.986C447.9 126.986 450.657 127.454 453.092 128.367C456.449 124.528 460.271 121.601 464.997 121.601C469.723 121.601 472.319 124.832 472.319 127.758C472.319 130.685 470.184 132.675 467.593 132.675C464.836 132.675 461.801 130.053 463.166 126.682H464.397V125.137C461.64 124.832 459.044 126.049 455.545 129.28C460.736 131.903 463.932 136.514 463.932 142.063C463.932 150.983 455.222 157.913 444.843 157.913C443.013 157.913 441.186 157.749 439.494 157.445C436.738 158.522 435.533 160.067 435.533 161.284C435.533 162.829 436.295 164.047 440.421 164.515L456.914 165.756C464.232 166.364 468.519 169.595 468.519 176.385C468.519 181.769 464.558 190.853 443.939 190.853C428.538 191.017 422.12 186.545 422.12 180.997H422.075Z" fill="#081B1F"/>
<path d="M476.092 108.514H488.002V119.892H476.092V108.514ZM488.002 126.681V162.08C488.002 165.474 489.367 167.16 492.263 167.464L494.093 167.629V170.25H469.817V167.629L471.809 167.464C474.405 167.16 475.931 165.474 475.931 162.08V138.832C475.931 136.069 475.331 134.993 471.97 133.283L468.774 131.738L488.002 126.658V126.681Z" fill="#081B1F"/>
<path d="M525.387 142.835C525.387 136.514 523.095 130.989 517.904 130.989C514.081 130.989 511.047 134.689 511.047 142.227C511.047 149.766 514.246 154.073 518.53 154.073C522.052 154.073 525.387 150.679 525.387 142.835ZM532.708 180.388C532.708 177.626 531.039 176.385 527.817 176.244L507.99 174.699C506.321 175.776 504.794 177.461 504.794 179.943C504.794 183.478 508.616 187.341 519.134 187.341C531.178 187.505 532.708 182.87 532.708 180.412V180.388ZM495.458 180.997C495.458 176.993 499.719 175.448 504.468 173.458L508.594 171.773L506.763 171L502.802 172.686C501.133 171.14 500.368 168.987 500.368 166.833C500.368 160.839 507.851 156.977 512.877 155.291L511.047 154.214L507.39 155.455C502.498 152.832 499.303 148.384 499.303 142.835C499.303 133.916 508.012 126.986 518.391 126.986C521.287 126.986 524.044 127.454 526.474 128.367C529.835 124.528 533.657 121.601 538.383 121.601C543.106 121.601 545.702 124.832 545.702 127.758C545.702 130.685 543.571 132.675 540.975 132.675C538.218 132.675 535.184 130.053 536.553 126.682H537.78V125.137C535.023 124.832 532.427 126.049 528.931 129.28C534.119 131.903 537.314 136.514 537.314 142.063C537.314 150.983 528.605 157.913 518.23 157.913C516.399 157.913 514.569 157.749 512.877 157.445C510.12 158.522 508.916 160.067 508.916 161.284C508.916 162.829 509.682 164.047 513.804 164.515L530.297 165.756C537.618 166.364 541.902 169.595 541.902 176.385C541.902 181.769 537.941 190.853 517.326 190.853C501.921 191.017 495.503 186.545 495.503 180.997H495.458Z" fill="#081B1F"/>
<path d="M571.625 108.514H582.926V119.283H571.625V108.514ZM555.755 108.514H567.06V119.283H555.755V108.514ZM560.781 156.695C560.781 161.307 562.776 164.538 567.499 164.538C570.86 164.538 574.055 162.548 576.047 159.153V138.691C576.047 135.765 575.282 134.688 571.46 132.838L568.868 131.598L587.952 126.517V160.675C587.952 163.438 588.556 164.515 592.079 166.224L595.136 167.769L576.047 171V165.755L579.104 161.752V158.989L577.439 161.307C574.078 165.779 569.19 171 561.569 171C553.95 171 548.898 166.083 548.898 158.217V138.668C548.898 135.742 548.137 134.665 544.314 132.815L541.719 131.574L560.807 126.494V156.648L560.781 156.695Z" fill="#081B1F"/>
<path d="M597.428 167.605L599.419 167.441C602.015 167.137 603.545 165.451 603.545 162.057V138.809C603.545 136.046 602.941 134.969 599.584 133.26L596.385 131.715L615.473 126.635V132.324L612.416 136.327V138.949L614.085 136.959C619.112 130.802 623.395 126.799 629.187 126.799C634.539 126.799 638.639 129.421 640.331 133.728L638.035 136.491V139.417L639.865 137.1C644.592 130.942 649.179 126.799 655.132 126.799C662.615 126.799 667.337 131.575 667.337 139.581V162.057C667.337 165.287 669.006 167.137 671.602 167.441L673.594 167.605V170.227H650.405V167.605L652.236 167.441C654.366 167.277 655.432 165.451 655.432 162.057V141.127C655.432 136.351 653.001 133.588 649.014 133.588C646.722 133.588 643.988 134.969 641.535 138.832V162.08C641.535 165.311 642.761 167.324 644.73 167.465L646.561 167.629V170.251H624.577V167.629L626.407 167.465C628.538 167.301 629.603 165.475 629.603 162.08V141.15C629.603 136.374 627.172 133.611 623.189 133.611C620.755 133.611 617.998 135.157 615.706 138.692V161.939C615.706 165.17 616.771 167.184 618.902 167.324L620.732 167.488V170.11H597.544V167.652H597.383L597.428 167.605Z" fill="#081B1F"/>
<path d="M679.219 133.283L676.023 131.738L695.112 126.658V132.511L692.055 136.351V139.113L693.281 137.568C697.869 131.715 702.895 126.635 709.613 126.635C717.396 126.635 722.283 131.411 722.283 139.417V161.893C722.283 165.123 723.953 166.973 726.544 167.277L728.536 167.441V170.063H704.887V167.441L706.717 167.277C709.148 166.973 710.378 165.287 710.378 161.893V140.963C710.378 136.187 707.782 133.424 703.521 133.424C700.322 133.424 697.404 135.414 695.134 138.668V161.752C695.134 164.983 696.361 166.833 698.795 167.137L700.626 167.301V169.923H676.972V167.301L678.968 167.137C681.56 166.833 683.09 165.147 683.09 161.752V138.504C683.251 136.046 682.625 134.969 679.268 133.26L679.219 133.283Z" fill="#081B1F"/>
<path d="M749.133 164.374C752.329 164.374 755.386 162.524 757.516 159.457V148.524L750.033 151.146C745.311 152.832 743.315 154.985 743.315 158.544C743.315 162.103 745.311 164.397 749.107 164.397L749.133 164.374ZM760.738 161.611V158.544L758.143 161.939C754.02 167.487 749.433 171.022 743.038 171.022C736.02 171.022 731.897 167.323 731.897 160.862C731.897 154.4 737.55 151.778 744.868 149.484L757.539 145.34V139.791C757.539 135.015 755.108 131.48 749.756 131.48C744.407 131.48 742.438 133.938 742.438 136.561H744.429C745.194 141.945 742.76 144.708 739.242 144.708C735.72 144.708 733.75 142.086 733.75 138.855C733.75 132.089 741.534 126.844 752.074 126.844C763.979 126.844 769.47 132.393 769.47 141.922V161.47C769.47 163.788 770.836 165.006 772.666 165.006C773.593 165.006 774.797 164.842 776.023 163.765L776.327 163.929C774.335 168.705 769.77 170.999 765.787 170.999C761.2 170.999 758.465 169.15 757.843 165.45L760.738 161.611Z" fill="#081B1F"/>
<path d="M796.132 164.374C799.328 164.374 802.385 162.524 804.519 159.457V148.524L797.036 151.146C792.31 152.832 790.318 154.985 790.318 158.544C790.318 162.103 792.31 164.397 796.109 164.397L796.132 164.374ZM807.737 161.611V158.544L805.142 161.939C801.019 167.487 796.432 171.022 790.04 171.022C783.023 171.022 778.896 167.323 778.896 160.862C778.896 154.4 784.549 151.778 791.871 149.484L804.542 145.34V139.791C804.542 135.015 802.107 131.48 796.758 131.48C791.406 131.48 789.437 133.938 789.437 136.561H791.428C792.193 141.945 789.763 144.708 786.241 144.708C782.719 144.708 780.749 142.086 780.749 138.855C780.749 132.089 788.533 126.844 799.073 126.844C810.982 126.844 816.469 132.393 816.469 141.922V161.47C816.469 163.788 817.839 165.006 819.665 165.006C820.592 165.006 821.799 164.842 823.026 163.765L823.326 163.929C821.334 168.705 816.769 170.999 812.786 170.999C808.199 170.999 805.468 169.15 804.842 165.45L807.737 161.611Z" fill="#081B1F"/>
<path d="M835.652 136.818C835.652 139.136 836.717 140.821 839.913 142.062L850.126 145.457C857.148 147.775 860.666 152.083 860.666 157.772C860.666 165.31 853.949 171.163 844.8 171.163C839.009 171.163 833.821 168.096 830.903 163.625V166.691C831.968 167.769 833.656 169.15 833.96 169.314L826.777 171.632L826.477 155.618H829.999L832.13 159.153C834.886 163.929 838.686 166.856 844.174 166.856C848.296 166.856 850.73 164.701 850.73 161.471C850.73 159.153 849.504 157.631 845.704 156.39L836.691 153.464C829.673 151.146 826.154 146.698 826.154 140.681C826.154 132.979 832.107 127.454 840.352 127.454C845.239 127.454 850.126 130.52 852.861 134.688V131.621C852.096 130.848 850.265 128.999 849.965 128.858L857.148 127.313L857.448 142.554H853.787L851.957 139.323C849.365 134.851 846.469 131.925 841.743 131.925C837.782 131.761 835.625 134.079 835.625 136.841L835.652 136.818Z" fill="#081B1F"/>
<path d="M870.907 108.514H882.812V119.892H870.907V108.514ZM882.812 126.681V162.08C882.812 165.474 884.181 167.16 887.077 167.464L888.904 167.629V170.25H864.628V167.629L866.619 167.464C869.215 167.16 870.745 165.474 870.745 162.08V138.832C870.745 136.069 870.142 134.993 866.784 133.283L863.585 131.738L882.812 126.658V126.681Z" fill="#081B1F"/>
<path d="M910.426 156.672C910.426 161.284 912.418 164.515 917.144 164.515C920.501 164.515 923.697 162.525 925.689 159.13V138.668C925.689 135.742 924.927 134.665 921.105 132.815L918.51 131.574L937.598 126.494V160.652C937.598 163.414 938.198 164.491 941.72 166.2L944.777 167.745L925.689 170.976V165.732L928.749 161.729V158.966L927.08 161.284C923.719 165.755 918.832 170.976 911.214 170.976C903.592 170.976 898.543 166.06 898.543 158.193V138.645C898.543 135.718 897.778 134.641 893.956 132.792L891.36 131.551L910.449 126.47V156.625L910.426 156.672Z" fill="#081B1F"/>
<path d="M947.047 167.605L949.038 167.441C951.634 167.137 953.164 165.451 953.164 162.057V138.809C953.164 136.046 952.561 134.969 949.203 133.26L946.004 131.715L965.092 126.635V132.324L962.035 136.327V138.949L963.701 136.959C968.731 130.802 973.014 126.799 978.806 126.799C984.158 126.799 988.258 129.421 989.946 133.728L987.654 136.491V139.417L989.485 137.1C994.211 130.942 998.798 126.799 1004.75 126.799C1012.23 126.799 1016.96 131.575 1016.96 139.581V162.057C1016.96 165.287 1018.63 167.137 1021.22 167.441L1023.21 167.605V170.227H1000.02V167.605L1001.86 167.441C1003.99 167.277 1005.05 165.451 1005.05 162.057V141.127C1005.05 136.351 1002.62 133.588 998.633 133.588C996.341 133.588 993.607 134.969 991.154 138.832V162.08C991.154 165.311 992.38 167.324 994.349 167.465L996.18 167.629V170.251H974.196V167.629L976.026 167.465C978.157 167.301 979.222 165.475 979.222 162.08V141.15C979.222 136.374 976.791 133.611 972.808 133.611C970.374 133.611 967.617 135.157 965.325 138.692V161.939C965.325 165.17 966.39 167.184 968.521 167.324L970.351 167.488V170.11H947.163V167.652H947.002L947.047 167.605Z" fill="#081B1F"/>
</g>
<defs>
<clipPath id="clip0_349_5">
<rect width="1024" height="199" fill="white"/>
</clipPath>
</defs>
</svg>
